<?xml version="1.0" standalone="no"?><!DOCTYPE svg PUBLIC "-//W3C//DTD SVG 1.1//EN" "http://www.w3.org/Graphics/SVG/1.1/DTD/svg11.dtd"><svg t="1764732328171" class="icon" viewBox="0 0 1024 1024" version="1.1" xmlns="http://www.w3.org/2000/svg" p-id="43328" width="25" height="25" xmlns:xlink="http://www.w3.org/1999/xlink"><path d="M870.144 495.488c-5.248 4.224-9.984 8.064-14.592 11.904-4.352-5.376-10.88-10.24-12.8-16.384-5.888-19.456 1.792-35.584 18.688-45.696 6.016-3.584 12.288-8.704 15.488-14.72 4.096-7.552 4.992-16.768 7.296-25.216-7.424-0.128-14.848-0.256-22.272-0.512-1.152 0-2.304-1.152-6.016-3.072 4.992-5.504 9.728-10.112 13.952-15.232 5.76-7.04 12.928-13.568 16.256-21.76 2.56-6.272 2.432-18.944-1.024-20.992-7.936-4.736-18.688-5.632-28.416-6.144-5.504-0.256-11.264 3.456-17.024 5.504-1.28-1.92-2.56-3.84-3.712-5.888 3.968-3.072 7.552-8.064 12.032-8.832 20.224-3.456 17.408-18.56 17.28-32.256-0.128-14.976-9.472-13.952-20.608-12.672-4.992 0.512-10.496-4.224-19.84-8.448 23.68-9.088 34.304-26.752 28.672-39.552-6.016-13.568-25.088-16.512-42.752-7.04-12.16 6.528-24.96 12.032-37.248 18.56-5.888 3.072-10.88 7.552-16.384 11.52 0.768 2.176 1.536 4.224 2.432 6.4 6.272 0.384 12.672 0.64 18.944 1.408 5.632 0.64 11.136 2.048 16.64 3.2-1.408 6.784-1.408 14.592-4.864 20.224-3.072 5.12-10.88 7.168-14.976 11.904-4.096 4.864-8.448 11.392-8.448 17.28 0 18.304 12.928 18.176 26.624 14.464 5.888 13.696 2.304 18.944-11.392 20.48-7.552 0.896-17.92 3.84-21.248 9.472-9.728 16.128-2.688 33.792 15.104 44.8 5.248-4.48 10.624-8.96 15.872-13.44l5.376 2.304c-2.816 8.32-3.712 17.92-8.704 24.704-7.296 10.112-16.768 18.816-26.368 26.88-14.848 12.544-9.216 24.192 0.256 35.968 10.24 12.8 20.096 9.472 30.08-0.64 2.048-2.176 5.12-3.328 9.216-6.016 1.024 4.992 1.92 7.936 2.176 11.008 3.712 63.36 7.168 126.72 11.008 189.952 0.512 8.832-1.28 20.224 13.568 18.688 13.184-1.408 22.144-5.376 20.864-22.144-2.176-27.648-2.432-55.552-2.944-83.328-0.512-24.704-0.128-49.28-0.128-77.952 4.48 9.728 6.656 16.64 10.624 22.4 7.04 10.112 13.312 21.888 23.04 28.416 18.304 12.288 33.792 3.2 35.712-18.688 2.432-26.368-11.264-41.216-45.44-50.816zM367.872 557.824c-0.384-5.376-15.104-10.368-23.808-14.336-3.712-1.664-8.576-0.64-13.696-0.896 29.44-46.848 29.44-46.848 22.784-65.408-5.376 0.256-11.008 0.64-14.848 0.768 0-16.128-0.384-31.232 0.256-46.336 0.128-3.84 3.84-7.552 4.736-11.52 1.664-7.04 5.12-15.488 2.816-21.12-1.92-4.736-12.16-9.856-17.152-8.576-11.648 2.944-22.912 8.704-33.152 15.104-10.752 6.784-19.968 15.744-29.952 23.808-2.944-2.432-5.76-4.864-8.704-7.296 4.992-6.912 8.576-15.872 15.232-20.48 28.16-19.712 57.856-37.248 85.632-57.6 6.016-4.352 5.888-17.024 8.576-25.984-7.552-0.896-15.488-3.712-22.4-2.048-9.216 2.176-17.536 7.808-26.624 12.16-4.736-19.84-2.048-32.256 21.248-32.512 6.784-0.128 16.128-5.248 19.712-11.008 3.968-6.272 3.584-16 2.944-24.064-0.128-2.048-8.448-4.992-13.184-4.992-27.136-0.384-26.752-0.128-22.656-27.392 1.792-11.776 7.168-24.832-6.528-33.92-27.52 21.76-27.52 21.76-25.216 33.92 6.272 32.768 1.792 38.656-30.72 41.344-1.536 0.128-3.072 1.792-4.48 2.688 6.656 23.168 6.656 23.04 30.72 29.568 2.688 0.768 6.656 3.584 6.912 5.76 1.92 15.36 7.936 31.104-6.784 44.416-27.136 24.576-55.168 46.08-95.104 40.448-5.376-0.768-11.136 1.024-21.12 2.176 7.296 11.52 12.416 27.264 18.176 27.52 18.176 0.64 36.608-4.48 56.192-7.552 0 5.632 0.384 12.8-0.128 19.84-0.768 12.416-4.096 24.96-2.432 36.992 3.328 23.552 9.344 46.72 14.08 70.016 3.2 15.744 8.448 17.664 20.864 7.68 2.56-2.048 5.504-3.712 8.192-5.632 1.664 1.92 3.2 3.968 4.864 5.888-5.632 4.736-10.624 12.544-16.896 13.824-37.76 7.424-48.896 23.552-37.12 60.8 2.688 8.576 11.904 20.736 18.56 21.12 11.648 0.64 25.216-4.48 35.328-11.136 20.096-13.184 37.12-31.232 57.856-43.008 14.72-8.832 17.92-21.12 17.024-33.024z m-92.416-86.272c-0.768-20.992 10.496-34.304 31.744-35.84-11.904 13.44-21.12 23.808-31.744 35.84z" p-id="43329"></path><path d="M734.464 346.752c0.512-6.016 8.448-11.136 11.136-17.664 4.992-12.032 10.752-24.704 11.264-37.248 0.128-3.712-16.384-10.368-25.6-11.264-7.424-0.768-15.616 4.736-23.296 8.064-7.68 3.328-15.488 6.656-22.528 11.136-4.608 2.944-11.392 7.936-11.264 11.776 0.256 4.736 6.016 9.856 10.368 13.696 3.84 3.456 13.44 6.528 13.056 7.68-1.792 6.4-4.352 14.976-9.344 17.664-18.432 9.6-13.696 23.552-3.2 31.488 17.536 13.184 12.672 24.448 0.768 35.2-20.096 18.176-13.952 37.248-5.504 58.24 6.144-1.024 11.52-1.92 20.864-3.456-4.608 16.64-8.576 30.848-13.696 49.536 2.432 7.552 6.272 20.864 11.392 33.664 2.176 5.376 6.784 9.728 10.368 14.592 3.712-4.864 9.728-9.344 10.624-14.592 3.2-20.224 4.736-40.704 7.04-61.056 2.944-26.24 4.992-52.608 9.6-78.464 3.456-18.688 10.496-36.864 15.872-55.168-9.856-4.608-18.176-9.6-17.92-13.824zM611.584 556.672c-13.44-24.832-13.44-51.072-6.784-73.088 14.464-46.72-15.744-73.856-40.192-111.36-2.432 12.16-3.456 18.56-5.12 24.832-6.144 23.424 5.376 43.392 11.008 64.896 13.44 50.816 18.432 102.784 14.208 155.392-0.64 7.808 4.608 16.256 7.168 24.32 8.448-4.224 18.688-6.656 25.088-12.928 7.296-7.168 11.648-17.536 16.256-27.008 7.168-14.72 14.208-29.696 19.712-45.056 7.808-21.632 14.592-43.776 21.248-65.92 1.024-3.456-0.896-7.68-1.92-14.976-22.4 27.52-30.208 61.568-60.672 80.896zM175.872 562.304c-20.736-30.976-18.688-58.752-15.616-86.144 1.664-15.36 0.512-27.648-13.44-38.4-17.28-13.44-18.048-30.208-6.272-49.024 2.432-3.968 3.84-8.576 6.4-14.208-13.568 1.664-24.448 2.944-39.68 4.736 4.224 22.4 8.064 44.288 12.8 66.048 3.584 16.64 10.88 32.896 12.032 49.664 2.688 37.504 2.944 75.264 3.712 112.896 0.256 12.544 1.152 27.008 15.36 28.032 7.936 0.512 20.096-8.832 24.448-17.024 13.568-25.728 25.344-52.48 35.584-79.616 6.784-18.176 9.6-37.888 14.208-56.96-1.536-0.384-3.2-0.768-4.736-1.152-14.208 25.728-28.416 51.456-44.8 81.152zM427.136 512.256c-4.992-2.176-13.44-1.92-17.664 1.024-2.688 1.792-2.688 12.416 0 16.256 10.24 14.464 7.808 27.904-1.664 40.192-13.44 17.536-28.16 33.92-46.336 55.552 17.792-5.632 32.384-9.344 46.08-14.976 15.616-6.528 30.848-14.336 45.568-22.656 4.224-2.432 8.96-9.088 8.704-13.44-1.664-25.856-7.936-50.176-34.688-61.952zM153.856 335.616c-1.92 2.176-3.968 7.424-3.072 8.192 3.072 2.816 7.168 5.632 11.264 6.272 13.44 2.304 27.136 3.584 40.576 5.632 16.512 2.56 25.088-5.504 23.168-22.528-2.432-22.4-26.24-46.976-48.896-47.744-8.96-0.256-18.176 4.736-30.464 8.32 24.832 22.016 24.704 21.888 7.424 41.856z" p-id="43330"></path><path d="M663.552 358.016c3.712 0 11.776-13.184 10.24-15.488-10.368-16.128-20.352-34.048-35.328-44.928-8.448-6.144-25.984 0.256-41.856 1.024 18.176 34.304 18.176 34.304-2.432 56.192 23.168 1.28 46.336 3.456 69.376 3.2zM396.928 500.992c14.592-10.496 28.672-21.888 42.368-33.664 4.096-3.456 9.344-9.6 8.832-13.824-2.56-20.224-10.496-38.4-28.8-49.536-3.84-2.432-11.136-3.2-14.72-1.152-2.944 1.664-3.072 8.704-3.84 13.568-2.304 15.872-2.56 32.256-7.04 47.36-4.48 14.848-13.184 28.288-20.096 42.368l2.304 4.224c7.168-2.944 14.976-4.992 20.992-9.344zM390.528 346.368c18.688 1.664 28.928-4.352 34.304-16.896 6.016-13.952 11.648-28.16 15.36-42.88 1.536-6.144-2.048-13.696-3.2-20.48-13.44 3.456-27.008 6.528-40.064 11.264-1.28 0.512-0.64 13.696 2.816 17.664 8.576 9.856 8.192 18.56 2.048 28.8-3.456 6.144-6.272 12.672-11.264 22.528z" p-id="43331"></path></svg>