<?xml version="1.0" standalone="no"?><!DOCTYPE svg PUBLIC "-//W3C//DTD SVG 1.1//EN" "http://www.w3.org/Graphics/SVG/1.1/DTD/svg11.dtd"><svg t="1764732145651" class="icon" viewBox="0 0 1024 1024" version="1.1" xmlns="http://www.w3.org/2000/svg" p-id="33973" xmlns:xlink="http://www.w3.org/1999/xlink" width="25" height="25"><path d="M464.945951 606.208H412.597073s-46.055024 5.494634-62.239219 57.643707c-5.594537 34.865951 4.995122 60.440976 6.893268 64.836683 1.898146 4.395707 16.78361 18.781659 54.147122 42.358634H488.522927V553.559415l-23.477073-0.599415v53.248h-0.099903z m0 117.784976h-41.759219s-24.17639 0.999024-31.669073-26.973659c-3.796293-12.487805 0.599415-20.579902 2.497561-26.274341 1.798244-5.594537 9.990244-17.482927 26.673951-17.482927h44.25678v70.730927z" p-id="33974" fill="#0091ea"></path><path d="M464.945951 606.208H412.597073s-46.055024 5.494634-62.239219 57.643707c-5.594537 34.865951 4.995122 60.440976 6.893268 64.836683 1.898146 4.395707 16.78361 18.781659 54.147122 42.358634H488.522927V553.559415l-23.477073-0.599415v53.248h-0.099903z m0 117.784976h-41.759219s-24.17639 0.999024-31.669073-26.973659c-3.796293-12.487805 0.599415-20.579902 2.497561-26.274341 1.798244-5.594537 9.990244-17.482927 26.673951-17.482927h44.25678v70.730927zM606.208 723.992976h-31.169561s-15.884488-0.499512-15.884488-10.989269v-99.003317l-47.153951 0.699317v110.192391s8.891317 22.777756 47.453659 46.454634h93.908292V606.208h-47.153951v117.784976z" p-id="33975" fill="#0091ea"></path><path d="M606.208 723.992976h-31.169561s-15.884488-0.499512-15.884488-10.989269v-99.003317l-47.153951 0.699317v110.192391s8.891317 22.777756 47.453659 46.454634h93.908292V606.208h-47.153951v117.784976z" p-id="33976" fill="#0091ea"></path><path d="M959.562927 200.803902c0-75.226537-61.04039-136.266927-136.266927-136.266926H200.704c-75.226537 0-136.266927 61.04039-136.266927 136.266926v622.392196c0 75.226537 61.04039 136.266927 136.266927 136.266926H823.196098c75.226537 0 136.266927-61.04039 136.266926-136.266926V200.803902h0.099903zM549.66322 306.101073c3.996098-36.46439 47.453659-92.209951 82.419512-84.317658 34.766049 7.992195 66.435122 54.04722 60.041366 93.80839-6.293854 39.761171-37.863024 92.209951-87.015025 85.816195-49.052098-6.493659-60.041366-50.850341-55.445853-95.306927zM446.763707 205.799024c36.764098 0 66.435122 42.358634 66.435122 94.60761 0 52.348878-29.671024 94.707512-66.435122 94.707512-36.664195 0-66.435122-42.358634-66.435122-94.707512 0-52.248976 29.770927-94.60761 66.435122-94.60761zM239.366244 429.980098s7.79239-77.824 61.739707-82.71922c42.858146-3.69639 74.327415 43.157854 77.624195 70.03161 1.998049 17.283122 10.989268 97.005268-55.545756 111.191414-66.33522 14.385951-91.111024-62.538927-83.818146-98.503804zM746.27122 765.452488c-36.46439 85.816195-169.634341 41.159805-169.634342 41.159805s-49.152-15.784585-105.996488-3.196878c-56.94439 12.68761-106.09639 7.992195-106.09639 7.992195s-66.634927 1.698341-85.61639-82.619317 66.435122-130.472585 72.92878-138.264976c6.293854-7.992195 50.650537-38.062829 79.222634-85.816195 28.572098-47.753366 114.088585-85.816195 174.229854 7.992195 44.356683 63.537951 120.482341 122.380488 120.482342 122.380488s56.744585 44.456585 20.48 130.372683z m-11.189074-195.608976c-72.92878 1.698341-75.925854-49.251902-75.925853-85.816195 0-38.262634 7.79239-92.209951 66.634927-92.209951 58.642732 0 74.427317 57.244098 74.427317 76.325463-0.199805 19.081366 7.79239 100.002341-65.136391 101.700683z" p-id="33977" fill="#0091ea"></path><path d="M959.562927 200.803902c0-75.226537-61.04039-136.266927-136.266927-136.266926H200.704c-75.226537 0-136.266927 61.04039-136.266927 136.266926v622.392196c0 75.226537 61.04039 136.266927 136.266927 136.266926H823.196098c75.226537 0 136.266927-61.04039 136.266926-136.266926V200.803902h0.099903zM549.66322 306.101073c3.996098-36.46439 47.453659-92.209951 82.419512-84.317658 34.766049 7.992195 66.435122 54.04722 60.041366 93.80839-6.293854 39.761171-37.863024 92.209951-87.015025 85.816195-49.052098-6.493659-60.041366-50.850341-55.445853-95.306927zM446.763707 205.799024c36.764098 0 66.435122 42.358634 66.435122 94.60761 0 52.348878-29.671024 94.707512-66.435122 94.707512-36.664195 0-66.435122-42.358634-66.435122-94.707512 0-52.248976 29.770927-94.60761 66.435122-94.60761zM239.366244 429.980098s7.79239-77.824 61.739707-82.71922c42.858146-3.69639 74.327415 43.157854 77.624195 70.03161 1.998049 17.283122 10.989268 97.005268-55.545756 111.191414-66.33522 14.385951-91.111024-62.538927-83.818146-98.503804zM746.27122 765.452488c-36.46439 85.816195-169.634341 41.159805-169.634342 41.159805s-49.152-15.784585-105.996488-3.196878c-56.94439 12.68761-106.09639 7.992195-106.09639 7.992195s-66.634927 1.698341-85.61639-82.619317 66.435122-130.472585 72.92878-138.264976c6.293854-7.992195 50.650537-38.062829 79.222634-85.816195 28.572098-47.753366 114.088585-85.816195 174.229854 7.992195 44.356683 63.537951 120.482341 122.380488 120.482342 122.380488s56.744585 44.456585 20.48 130.372683z m-11.189074-195.608976c-72.92878 1.698341-75.925854-49.251902-75.925853-85.816195 0-38.262634 7.79239-92.209951 66.634927-92.209951 58.642732 0 74.427317 57.244098 74.427317 76.325463-0.199805 19.081366 7.79239 100.002341-65.136391 101.700683z" p-id="33978" fill="#0091ea"></path></svg>