<?xml version="1.0" standalone="no"?><!DOCTYPE svg PUBLIC "-//W3C//DTD SVG 1.1//EN" "http://www.w3.org/Graphics/SVG/1.1/DTD/svg11.dtd"><svg t="1764732369044" class="icon" viewBox="0 0 1024 1024" version="1.1" xmlns="http://www.w3.org/2000/svg" p-id="45503" width="25" height="25" xmlns:xlink="http://www.w3.org/1999/xlink"><path d="M482.7648 368.3328h30.592l-0.0256 160.6656c-17.9456 0.0768-35.8656 0-53.8112 0.0512-5.76-0.1792-11.6224 0.4864-17.3056-0.8448-12.0064-2.4576-22.5536-9.9584-30.0032-19.5328a55.168 55.168 0 0 1-10.624-24.6272 84.1472 84.1472 0 0 1 0.0768-27.9808c2.944-10.1888 8.2176-19.7376 15.7696-27.2128 6.2976-6.2976 14.1312-10.9824 22.6048-13.6448 3.4048-1.0496 6.9376-1.9456 10.5472-1.8944h32.128c0.0768-15.0272 0.0768-29.9776 0.0512-44.9792m-33.9456 72.832c-6.1952 2.8416-11.9808 7.3472-14.9248 13.6448a53.248 53.248 0 0 0-3.1744 17.2032 35.328 35.328 0 0 0 6.144 20.1728 25.2928 25.2928 0 0 0 21.4272 10.9056h24.5248v-63.872h-27.4688c-2.304-0.0512-4.4288 1.0752-6.528 1.9456z m81.0496-25.5232h30.4384c0.0512 24.9344 0 49.8688 0.0256 74.8288a13.3632 13.3632 0 0 0 3.072 8.832 12.544 12.544 0 0 0 9.3952 3.8144h32.2048c0-29.1328 0.0512-58.2656 0-87.3984 10.1888-0.1024 20.352-0.0256 30.5152-0.0256v113.3824c-24.6784 0.0512-49.3312 0.0256-73.984 0.0256a37.7088 37.7088 0 0 1-21.6064-8.8064 30.976 30.976 0 0 1-10.1376-23.936c0.0768-26.9056 0.0512-53.8112 0.0768-80.7168z" fill="#FCFBFF" p-id="45504"></path><path d="M469.3248 102.912c9.3696-1.6128 19.1488 0.8704 27.008 6.0672 12.2624 8.064 20.3776 21.1968 25.0112 34.8672a99.584 99.584 0 0 1-1.4336 66.5344c-4.096 10.3936-10.24 20.1728-18.816 27.392a40.448 40.448 0 0 1-24.96 10.0608 39.936 39.936 0 0 1-25.1648-8.576c-11.4432-8.8576-18.8928-21.9392-23.0912-35.5584a99.2512 99.2512 0 0 1 1.92-62.6688c4.5312-11.904 11.7504-23.1424 22.1696-30.6944 5.12-3.712 11.0592-6.4 17.3568-7.424z m137.0368 10.624c6.5792-1.4336 13.312 0.384 19.2512 3.2512 8.3968 4.096 15.5392 10.4192 21.2992 17.7408 8.064 10.24 13.6448 22.5792 15.36 35.584 1.3312 9.0112-0.128 18.176-2.6624 26.88a99.8912 99.8912 0 0 1-13.8752 29.5168 66.2784 66.2784 0 0 1-20.5824 19.6864 45.312 45.312 0 0 1-25.5488 6.1696c-10.88-0.7168-21.8624-4.4544-29.9008-12.0064-8.064-7.5264-12.6464-18.048-14.7456-28.7232a110.9248 110.9248 0 0 1-0.8192-34.432c1.4592-10.1376 5.7344-19.6352 10.9312-28.3648 5.4784-9.0624 12.2368-17.4336 20.3264-24.2432 6.0416-5.12 13.0816-9.472 20.9664-11.0592z m-246.1952 97.28c9.9328-1.792 20.3776 0.2816 29.1584 5.1712 13.0048 7.168 23.04 18.944 29.5424 32.1792 2.6112 5.4528 4.6336 11.3152 5.1968 17.3824 1.6128 15.232 1.3056 30.9248-3.0976 45.696-2.9696 10.0352-8.2432 19.6096-16.1792 26.5728-9.8048 8.7296-23.0656 12.9024-36.0704 13.1328a44.6464 44.6464 0 0 1-29.7984-11.0592c-10.8032-9.3184-17.5104-22.6048-21.0176-36.2752-2.304-9.2928-3.3792-19.0208-1.8432-28.5184 2.2016-15.872 6.8608-31.7952 16-45.0816 6.5792-9.5488 16.4864-17.2288 28.1088-19.2z m319.7696 35.072c11.8016-1.4592 24.2944 0.128 34.8672 5.9392 9.728 5.2992 17.3824 13.9264 22.4768 23.7056 4.2752 8.1408 7.1936 17.0496 7.9872 26.2144 0.4096 13.1072 0.6144 26.368-2.1248 39.2448-1.92 9.0112-5.2992 17.8944-11.1104 25.1392a41.5488 41.5488 0 0 1-21.8368 14.1568c-8.6016 2.3808-17.6128 2.432-26.3936 1.7152-10.4704-0.9984-21.0944-3.9424-29.44-10.5728a45.4912 45.4912 0 0 1-14.9504-22.8608c-3.6864-11.8784-4.0192-24.4224-3.8144-36.7104 0.4096-12.8512 2.2016-25.9072 7.3472-37.8368 3.84-8.8576 10.0608-16.9728 18.4576-21.9648a46.848 46.848 0 0 1 18.5344-6.1696z m-159.0528 47.4112a64.768 64.768 0 0 1 35.1488 5.8624c16.8704 7.936 29.952 22.144 39.9104 37.6576 12.416 17.92 26.9824 34.2272 42.2144 49.7408a621.6448 621.6448 0 0 0 45.5424 41.7024c2.6368 2.2528 5.4784 4.2752 7.9104 6.784a75.776 75.776 0 0 1 20.864 45.8752c1.7152 18.0736-2.6112 36.224-9.9072 52.6848-5.504 12.0576-14.976 22.272-26.6752 28.544-16.2048 8.7296-35.072 10.8288-53.1968 10.1632a200.3968 200.3968 0 0 1-51.9936-9.2672 165.9392 165.9392 0 0 0-63.0784-4.608c-9.8048 1.0752-19.328 3.8144-29.0816 5.3248-21.9392 3.6096-44.288 4.8128-66.5088 3.3536a64.768 64.768 0 0 1-47.7184-24.192 88.3456 88.3456 0 0 1-15.3344-29.824c-3.072-10.0096-4.9408-20.48-4.4032-30.9504a80.128 80.128 0 0 1 10.1632-35.3536c8.9088-16.256 22.4256-29.4912 37.0432-40.6784 4.1472-3.328 8.7808-6.1184 12.3392-10.1376 6.8864-6.3744 14.1568-12.3648 20.9152-18.8416a226.1248 226.1248 0 0 0 34.1504-39.9872c2.7648-4.1728 5.0944-8.6272 8.1664-12.544 12.9024-16.8448 32.384-28.928 53.5296-31.3088m-38.1184 75.0336v44.9536h-32.128a35.9936 35.9936 0 0 0-10.5472 1.8944 55.296 55.296 0 0 0-22.6048 13.6448c-7.5264 7.4752-12.8 17.0496-15.7696 27.2128-1.536 9.216-1.7152 18.7392-0.0768 27.9808 1.6128 8.832 4.9152 17.5616 10.624 24.6272 7.4496 9.5744 17.9968 17.0752 30.0032 19.5328 5.6832 1.3312 11.5456 0.6656 17.3056 0.8448 17.9456-0.0512 35.8656 0.0256 53.8112-0.0512l0.0256-160.6656-30.6432 0.0256m47.104 47.3088l-0.0256 80.7168c-0.384 8.9344 3.4816 17.9456 10.1376 23.936 5.9136 5.2736 13.7728 8.064 21.6064 8.8064 24.6528 0 49.3056 0.0256 73.984-0.0256v-113.3824c-10.1632 0-20.3264-0.0768-30.5152 0.0256 0.0512 29.1328 0 58.2656 0 87.3984h-32.2048a12.544 12.544 0 0 1-9.3952-3.8144 13.312 13.312 0 0 1-3.072-8.832c-0.0256-24.96 0.0256-49.8944-0.0256-74.8288h-30.4896z" fill="#306CFF" p-id="45505"></path><path d="M448.8192 441.1648c2.0992-0.8704 4.224-1.9968 6.5536-1.9456h27.4688v63.872h-24.5248a25.2928 25.2928 0 0 1-21.4272-10.9056 35.328 35.328 0 0 1-6.144-20.1728c0.128-5.8624 1.152-11.7248 3.1744-17.2032 2.9184-6.2976 8.7296-10.8032 14.8992-13.6448z" fill="#306CFF" p-id="45506"></path><path d="M326.272 700.2624l6.4512-21.2992H240.768v-28.6464H530.432v28.6464h-119.2448l-6.7584 21.2992h118.8096v206.1056h-273.92v-206.1056h76.9536z m-5.248 81.28h130.5088V726.784H321.024v54.7584z m0 24.6016v73.6512h130.5088V806.144H321.024zM668.416 678.9376v21.2992h31.9488v28.6464H668.416v18.1504h28.9536V775.68H668.416v130.6624h-67.5072V775.68h-11.6992v130.6624h-36.8896v-159.3088h48.5888v-18.1504h-53.9904v-28.6464h53.9904v-21.2992h-50.9952v-28.6464h148.7872v28.6464H668.416z m158.2592 155.5712h11.8528v28.6464h-11.8528v43.2128h-65.408v-43.2128H679.68v-28.6464h81.6128v-69.4528l-52.9408-7.1936v-33.7408l52.9408 7.3472v-39.4496l-52.0448-7.5008v-33.5872l52.0448 7.04v-13.7984h65.408v190.336z" fill="#306CFF" p-id="45507"></path></svg>