<?xml version="1.0" standalone="no"?><!DOCTYPE svg PUBLIC "-//W3C//DTD SVG 1.1//EN" "http://www.w3.org/Graphics/SVG/1.1/DTD/svg11.dtd"><svg t="1764732276818" class="icon" viewBox="0 0 1024 1024" version="1.1" xmlns="http://www.w3.org/2000/svg" p-id="40598" width="25" height="25" xmlns:xlink="http://www.w3.org/1999/xlink"><path d="M199.111111 0h625.777778c109.795556 0 199.111111 89.315556 199.111111 199.111111v625.777778c0 109.795556-89.315556 199.111111-199.111111 199.111111H199.111111c-109.795556 0-199.111111-89.315556-199.111111-199.111111V199.111111C0 89.315556 89.315556 0 199.111111 0z" fill="#BB1612" p-id="40599"></path><path d="M722.488889 194.56c-25.6-35.84-14.791111-83.057778-65.991111-95.573333-12.515556-3.982222-29.582222-10.808889-42.666667-6.257778 0 14.791111 21.048889 21.048889 14.791111 38.115555-10.808889 23.324444-55.182222 10.808889-74.524444 8.533334C472.177778 122.311111 385.137778 130.844444 312.888889 175.217778 223.573333 230.4 159.857778 325.973333 200.248889 432.355556c27.875556 74.524444 80.782222 127.431111 148.48 167.822222 14.791111 8.533333 34.133333 12.515556 34.133333 35.84 0 12.515556-72.248889 19.342222-83.057778 23.324444-27.875556 8.533333-44.373333 34.133333-52.906666 59.733334-8.533333 19.342222-10.808889 46.648889 12.515555 55.182222 27.875556 8.533333 21.048889-19.342222 27.875556-34.133334 8.533333-21.048889 21.048889-34.133333 44.373333-27.875555 23.324444 8.533333 25.6 29.582222 17.066667 48.924444-8.533333 17.066667-21.048889 31.857778-34.133333 46.648889-19.342222 12.515556-34.133333 27.875556-14.791112 51.2 14.791111 17.066667 34.133333 25.6 52.906667 3.982222 34.133333-23.324444 44.373333-61.44 55.182222-100.124444 6.257778-21.048889 19.342222-40.391111 44.373334-31.857778 25.6 8.533333 19.342222 29.582222 17.066666 48.924445-3.982222 38.115556-31.857778 61.44-55.182222 89.315555-19.342222 10.808889-21.048889 23.324444-8.533333 40.391111 14.791111 19.342222 34.133333 23.324444 55.182222 6.257778 21.048889-10.808889 34.133333-29.582222 40.391111-51.2 8.533333-23.324444 12.515556-48.924444 21.048889-72.248889s25.6-31.857778 48.924444-19.342222 31.857778 31.857778 17.066667 55.182222c-6.257778 8.533333-12.515556 17.066667-19.342222 23.324445-25.6 38.115556-21.048889 48.924444 19.342222 55.182222 19.342222-8.533333 34.133333-21.048889 44.373333-42.666667 38.115556-76.231111 23.324444-121.173333-61.44-174.08-8.533333-14.791111-12.515556-31.857778 0-46.648889 17.066667-3.982222 35.84-6.257778 52.906667-10.808889 97.848889-25.6 178.631111-74.524444 208.213333-178.631111 14.791111-48.924444 10.808889-101.831111-8.533333-148.48-10.808889-23.324444-25.6-51.2-44.373333-69.973333-22.755556-13.653333-42.097778-22.186667-56.888889-40.96zM403.911111 332.231111c0-1.706667 0-1.706667 0 0 0-1.706667 0-1.706667 0 0 0-1.706667 0-1.706667 0 0z m227.555556-72.248889c14.791111 19.342222 23.324444 40.391111 23.324444 63.715556 0 17.066667-14.791111 10.808889-23.324444 2.275555-6.257778-6.257778-10.808889-12.515556-14.791111-21.048889-10.808889-17.066667-23.324444-34.133333-40.391112-44.373333-46.648889-35.84-99.555556-19.342222-148.48 2.275556-8.533333 3.982222-21.048889 10.808889-27.875555 0-21.048889-40.391111 118.897778-55.182222 133.688889-55.182223h3.982222c34.133333 1.706667 70.542222 22.755556 93.866667 52.337778z m-302.08 193.422222c-21.048889-31.857778-48.924444-110.364444 12.515555-114.915555 42.666667-2.275556 76.231111 12.515556 116.622222 23.324444 48.924444 12.515556 97.848889 21.048889 148.48 27.875556 31.857778 3.982222 74.524444 21.048889 80.782223 55.182222 8.533333 38.115556-10.808889 67.697778-44.373334 83.057778-48.924444 23.324444-101.831111 21.048889-153.031111 12.515555-60.871111-8.533333-126.862222-33.564444-160.995555-87.04 0 2.275556 0 0 0 0z" fill="#FFFFFF" p-id="40600"></path></svg>